<svg xmlns="http://www.w3.org/2000/svg" viewBox="0 0 157.66 157.59"><defs><style>.cls-1{isolation:isolate;}.cls-2,.cls-3,.cls-5,.cls-6{fill:#100606;}.cls-3{mix-blend-mode:multiply;}.cls-4,.cls-5{mix-blend-mode:lighten;}.cls-5{opacity:0.2;}.cls-6{opacity:0.5;}</style></defs><g class="cls-1"><g id="Camada_2" data-name="Camada 2"><g id="Camada_5" data-name="Camada 5"><path class="cls-2" d="M91.05,90.76l0,0A46.07,46.07,0,0,1,106.62,66.5,45.81,45.81,0,0,0,91.05,90.76Z"/><path class="cls-2" d="M9.34,116.3l1,.31Z"/><path class="cls-2" d="M129.38,54.15A48.27,48.27,0,0,0,136.86,48c.2-.2.35-.44.55-.65-.24.25-.44.51-.68.75A47.79,47.79,0,0,1,129.38,54.15Z"/><path class="cls-2" d="M142.25,41.28c-.5.76-1,1.5-1.57,2.23C141.23,42.78,141.75,42,142.25,41.28Z"/><path class="cls-2" d="M155.59,60.79a75.53,75.53,0,0,0-5.69-16.06,63.29,63.29,0,0,1-2.69,12.9,66.67,66.67,0,0,1-22.14,32.18,63.51,63.51,0,0,1-5.45,3.82c22.27,6.41,14.25,18.27,14.25,18.27-8-4.34-13.47,3.1-20.33,7.18s-11.14,4.28-43,5.38c-30.09,1-35.43,17.59-35.94,19.49a78.5,78.5,0,0,0,44.23,13.64,81.52,81.52,0,0,0,17-1.81c2-.45,4-1,6-1.54a78.25,78.25,0,0,0,18.86-8.6c2.33-1.49,4.59-3,6.73-4.71.89-.65,1.74-1.42,2.65-2.14a80.85,80.85,0,0,0,14.27-16,79.06,79.06,0,0,0,11.31-62Z"/><path class="cls-2" d="M42.37,69.42c4.47,1.41,10.49,3.23,16.58,4.85,1.29.31,2.59.7,3.82,1a9.84,9.84,0,0,0,1.36.45c9.65,3.11,17.94,7.52,21.56,10.5a53.52,53.52,0,0,1,5.36,4.51A45.81,45.81,0,0,1,106.62,66.5c1.09-.89,2.23-1.74,3.42-2.53A44.1,44.1,0,0,1,119,59.3c.58-.25,1.23-.45,1.81-.71a43.94,43.94,0,0,0,8.59-4.44,47.79,47.79,0,0,0,7.35-6c.24-.24.44-.5.68-.75a43.15,43.15,0,0,0,3.27-3.87c.55-.73,1.07-1.47,1.57-2.23a44.82,44.82,0,0,0,2.38-4c.17-.35.38-.68.55-1A78.87,78.87,0,0,0,93.88,1.42,81.57,81.57,0,0,0,78.82,0,78.09,78.09,0,0,0,60.15,2.25,78.94,78.94,0,0,0,18.09,28.56c-1.95,2.45-3.82,5-5.56,7.56-.9,1.42-1.69,2.84-2.52,4.32A46.34,46.34,0,0,0,20.22,56.67,47.67,47.67,0,0,0,31.3,65.13q2,1.11,4.14,2A54,54,0,0,0,42.37,69.42Z"/><path class="cls-2" d="M55.52,102.64s-34.37-10-46.35-44.16c-.14-.37-.28-.74-.4-1.11C8.39,56.23,8,55.09,7.7,53.89,7.15,52,6.68,50,6.3,48A79.11,79.11,0,0,0,0,78.82,77.44,77.44,0,0,0,4.91,106a76.17,76.17,0,0,0,4.51,10.2s.28.1.77.24A52.78,52.78,0,0,0,55.52,102.64Z"/><path class="cls-3" d="M20.08,56.59A48,48,0,0,0,31.3,65.13q2,1.11,4.14,2a54,54,0,0,0,6.93,2.27c4.47,1.41,10.49,3.23,16.58,4.85,1.29.31,2.59.7,3.82,1a9.84,9.84,0,0,0,1.36.45c9.65,3.11,17.94,7.52,21.56,10.5a53.52,53.52,0,0,1,5.36,4.51l0,0A46.07,46.07,0,0,1,106.62,66.5c1.09-.89,2.23-1.74,3.42-2.53A44.1,44.1,0,0,1,119,59.3c.58-.25,1.23-.45,1.81-.71a43.94,43.94,0,0,0,8.59-4.44A48.27,48.27,0,0,0,136.86,48c.2-.2.35-.44.55-.65a46.44,46.44,0,0,0,3.27-3.87c.55-.73,1.07-1.47,1.57-2.23a42.56,42.56,0,0,0,2.38-4c.16-.32.37-.62.55-.93A78.76,78.76,0,0,0,10,40.54,46.3,46.3,0,0,0,20.08,56.59Z"/><path class="cls-3" d="M10.19,116.47a52.78,52.78,0,0,0,45.33-13.83s-34.37-10-46.35-44.16c-.14-.37-.28-.74-.4-1.11C8.39,56.23,8,55.09,7.7,53.89,7.15,52,6.68,50,6.3,48a0,0,0,0,0,0,0,78.89,78.89,0,0,0,3.21,68.4Z"/><path class="cls-3" d="M149.88,44.84a63.17,63.17,0,0,1-2.67,12.79,66.67,66.67,0,0,1-22.14,32.18,63.51,63.51,0,0,1-5.45,3.82c22.27,6.41,14.25,18.27,14.25,18.27-8-4.34-13.47,3.1-20.33,7.18s-11.14,4.28-43,5.38c-30.09,1-35.43,17.59-35.94,19.49l0,0A78.72,78.72,0,0,0,149.88,44.84Z"/><g class="cls-4"><path class="cls-5" d="M20.08,56.59A48,48,0,0,0,31.3,65.13q2,1.11,4.14,2a54,54,0,0,0,6.93,2.27c4.47,1.41,10.49,3.23,16.58,4.85,1.29.31,2.59.7,3.82,1a9.84,9.84,0,0,0,1.36.45c9.65,3.11,17.94,7.52,21.56,10.5a53.52,53.52,0,0,1,5.36,4.51l0,0A46.07,46.07,0,0,1,106.62,66.5c1.09-.89,2.23-1.74,3.42-2.53A44.1,44.1,0,0,1,119,59.3c.58-.25,1.23-.45,1.81-.71a43.94,43.94,0,0,0,8.59-4.44A48.27,48.27,0,0,0,136.86,48c.2-.2.35-.44.55-.65a46.44,46.44,0,0,0,3.27-3.87c.55-.73,1.07-1.47,1.57-2.23a42.56,42.56,0,0,0,2.38-4c.16-.32.37-.62.55-.93A78.76,78.76,0,0,0,10,40.54,46.3,46.3,0,0,0,20.08,56.59Z"/><path class="cls-5" d="M9.51,116.35c.16.05.42.14.87.26l-.87-.26Z"/><path class="cls-5" d="M10.19,116.47a52.78,52.78,0,0,0,45.33-13.83s-34.37-10-46.35-44.16c-.14-.37-.28-.74-.4-1.11C8.39,56.23,8,55.09,7.7,53.89,7.15,52,6.68,50,6.3,48a0,0,0,0,0,0,0,78.89,78.89,0,0,0,3.21,68.4Z"/><path class="cls-5" d="M149.88,44.84a63.17,63.17,0,0,1-2.67,12.79,66.67,66.67,0,0,1-22.14,32.18,63.51,63.51,0,0,1-5.45,3.82c22.27,6.41,14.25,18.27,14.25,18.27-8-4.34-13.47,3.1-20.33,7.18s-11.14,4.28-43,5.38c-30.09,1-35.43,17.59-35.94,19.49l0,0A78.72,78.72,0,0,0,149.88,44.84Z"/></g><path class="cls-6" d="M20.08,56.59A48,48,0,0,0,31.3,65.13q2,1.11,4.14,2a54,54,0,0,0,6.93,2.27c4.47,1.41,10.49,3.23,16.58,4.85,1.29.31,2.59.7,3.82,1a9.84,9.84,0,0,0,1.36.45c9.65,3.11,17.94,7.52,21.56,10.5a53.52,53.52,0,0,1,5.36,4.51l0,0A46.07,46.07,0,0,1,106.62,66.5c1.09-.89,2.23-1.74,3.42-2.53A44.1,44.1,0,0,1,119,59.3c.58-.25,1.23-.45,1.81-.71a43.94,43.94,0,0,0,8.59-4.44A48.27,48.27,0,0,0,136.86,48c.2-.2.35-.44.55-.65a46.44,46.44,0,0,0,3.27-3.87c.55-.73,1.07-1.47,1.57-2.23s.93-1.55,1.39-2.33A75.49,75.49,0,0,0,11.31,43.72,46.36,46.36,0,0,0,20.08,56.59Z"/><path class="cls-6" d="M149.12,49.76a61,61,0,0,1-1.91,7.87,66.67,66.67,0,0,1-22.14,32.18,63.51,63.51,0,0,1-5.45,3.82c22.27,6.41,14.25,18.27,14.25,18.27-8-4.34-13.47,3.1-20.33,7.18s-11.14,4.28-43,5.38c-24.77.85-32.76,12.21-35.09,17.26A75.07,75.07,0,0,0,78.6,155.5c42,.12,76.08-34.13,76.21-76.48A77.08,77.08,0,0,0,149.12,49.76Z"/><path class="cls-6" d="M55.52,102.64s-34.37-10-46.35-44.16c-.14-.37-.28-.74-.4-1.11C8.39,56.23,8,55.09,7.7,53.89c-.1-.37-.16-.77-.27-1.14a76.69,76.69,0,0,0,5.51,64.13A52.77,52.77,0,0,0,55.52,102.64Z"/></g></g></g></svg>