<svg xmlns="http://www.w3.org/2000/svg" viewBox="0 0 185.79 185.79"><defs><style>.cls-1{fill:#f9c997;}.cls-2{fill:#ea4210;}</style></defs><g id="Camada_2" data-name="Camada 2"><g id="Camada_5" data-name="Camada 5"><circle class="cls-1" cx="92.9" cy="92.9" r="92.9"/><path class="cls-2" d="M105.12,104.87l0,0A46.05,46.05,0,0,1,120.68,80.6,45.84,45.84,0,0,0,105.12,104.87Z"/><path class="cls-2" d="M23.4,130.4l1.05.31Z"/><path class="cls-2" d="M143.45,68.25a48.2,48.2,0,0,0,7.47-6.12c.2-.19.36-.44.56-.65-.24.25-.45.51-.68.75A47.69,47.69,0,0,1,143.45,68.25Z"/><path class="cls-2" d="M156.32,55.38c-.5.76-1,1.5-1.57,2.23C155.3,56.88,155.82,56.15,156.32,55.38Z"/><path class="cls-2" d="M169.65,74.89A74.63,74.63,0,0,0,164,58.83a64,64,0,0,1-2.68,12.9,66.62,66.62,0,0,1-22.15,32.18,59.78,59.78,0,0,1-5.44,3.82C156,114.14,147.94,126,147.94,126c-8-4.34-13.47,3.11-20.34,7.18s-11.13,4.28-43,5.38c-30.1,1-35.43,17.6-35.95,19.49a78.5,78.5,0,0,0,44.24,13.64,81.42,81.42,0,0,0,17-1.81c2-.45,4-1,6-1.54a78.32,78.32,0,0,0,18.87-8.6c2.32-1.49,4.58-3,6.72-4.71.9-.65,1.75-1.42,2.65-2.14a80.59,80.59,0,0,0,14.28-16,79,79,0,0,0,11.3-62Z"/><path class="cls-2" d="M56.44,83.52c4.47,1.41,10.49,3.23,16.57,4.85,1.29.32,2.59.71,3.83,1a9.84,9.84,0,0,0,1.36.45c9.64,3.11,17.93,7.52,21.55,10.5a53.52,53.52,0,0,1,5.37,4.52A45.84,45.84,0,0,1,120.68,80.6c1.1-.89,2.24-1.74,3.43-2.53A44,44,0,0,1,133,73.4c.59-.25,1.23-.45,1.81-.71a43.48,43.48,0,0,0,8.6-4.44,47.69,47.69,0,0,0,7.35-6c.23-.24.44-.5.68-.75a43.15,43.15,0,0,0,3.27-3.87c.55-.73,1.07-1.47,1.57-2.23a41.23,41.23,0,0,0,2.37-4c.18-.35.39-.68.55-1A78.75,78.75,0,0,0,108,15.52,81.57,81.57,0,0,0,92.89,14.1a77.59,77.59,0,0,0-18.67,2.26,78.83,78.83,0,0,0-42.06,26.3c-1.95,2.45-3.83,5-5.56,7.56-.91,1.42-1.69,2.84-2.52,4.33a46.22,46.22,0,0,0,10.2,16.22,47.51,47.51,0,0,0,11.09,8.46c1.35.74,2.72,1.41,4.13,2A54.65,54.65,0,0,0,56.44,83.52Z"/><path class="cls-2" d="M69.58,116.74s-34.36-10-46.35-44.16c-.13-.37-.27-.73-.4-1.11-.37-1.13-.74-2.28-1.06-3.48q-.82-2.89-1.4-5.93a78.93,78.93,0,0,0-6.3,30.86A77.44,77.44,0,0,0,19,120.13a76.87,76.87,0,0,0,4.51,10.21l.77.23A52.76,52.76,0,0,0,69.58,116.74Z"/></g></g></svg>