<svg xmlns="http://www.w3.org/2000/svg" viewBox="0 0 664.42 181.08"><defs><style>.cls-1{isolation:isolate;}.cls-2,.cls-3,.cls-5,.cls-6,.cls-7{fill:#100606;}.cls-3{mix-blend-mode:multiply;}.cls-4,.cls-5{mix-blend-mode:lighten;}.cls-5{opacity:0.2;}.cls-6{opacity:0.5;}.cls-7{font-size:26.73px;font-family:Montserrat-Medium, Montserrat;font-weight:500;letter-spacing:-0.04em;}.cls-8{letter-spacing:-0.02em;}.cls-9{letter-spacing:-0.03em;}.cls-10{letter-spacing:-0.03em;}.cls-11{letter-spacing:-0.03em;}.cls-12{letter-spacing:-0.04em;}.cls-13{letter-spacing:-0.02em;}.cls-14{letter-spacing:-0.02em;}.cls-15{letter-spacing:-0.01em;}.cls-16{letter-spacing:0em;}.cls-17{letter-spacing:-0.09em;}.cls-18{letter-spacing:-0.04em;}.cls-19{letter-spacing:-0.02em;}.cls-20{letter-spacing:-0.02em;}.cls-21{letter-spacing:0em;}.cls-22{letter-spacing:-0.01em;}</style></defs><g class="cls-1"><g id="Camada_2" data-name="Camada 2"><g id="Camada_5" data-name="Camada 5"><path class="cls-2" d="M664.41,55c0-7.43-.78-17.51-14.47-17.84h-6.08A18.72,18.72,0,0,0,629.77,44l-17.89,22c-3,3.1-4.53,4.32-7.57,4.32s-5.17-2.77-6.52-4.13c-14-17.45-13-16.28-18-22.36a18.66,18.66,0,0,0-14.15-6.92h-6c-8.21,0-14.15,6.15-14.15,15.78V157.82c0,5.3,3.94,9.69,8.85,9.69h14.86c4.92,0,8.92-4.39,8.92-9.69V98.36c0-2.18.9-2.64,1.22-2.77.85-.32,1.81.2,2.72,1.1l14.28,18.22c2.32,2.79,5,5,8.72,5,4,.26,8-4.65,8.28-5.11l13.82-17.51c1-1.41,2-1.87,2.92-1.87s1.41,1.3,1.41,3.5v59.12c0,5.29,4.07,9.63,9,9.63h14.8a8.76,8.76,0,0,0,7.43-4.4,10.36,10.36,0,0,0,1.62-5.49V139.15C664.47,112.91,664.41,55,664.41,55Z"/><path class="cls-2" d="M377.64,134.49H350.05a4,4,0,0,1-3.94-4V70.91c.06-6.46.19-17.32-.07-21.84,0-.13-.06-.52-.06-.64a14.9,14.9,0,0,0-.71-2.91,12.3,12.3,0,0,0-3.37-5.37,25.71,25.71,0,0,0-2.06-1.61c-.13-.06-.19-.13-.32-.2a15.22,15.22,0,0,0-6.79-2h-5.36c-.91.08-1.62.2-2.39.34a12.28,12.28,0,0,0-6.65,3,11.5,11.5,0,0,0-3.7,5.3,10.47,10.47,0,0,0-.58,2.72c0,.32-.06.65-.06,1-.26,5.31-.13,18.55-.13,18.55l-.06,6.08c0,.07,0,.13.06.13v.07l-.06-.07v75.92C313.8,161,319.23,167,330,167h47.69c5.94,0,9.37-4,10.21-11.82v-8.86C387,138.44,383.58,134.49,377.64,134.49Z"/><path class="cls-2" d="M86.74,109.36A44.78,44.78,0,0,0,74.07,96.43,193.57,193.57,0,0,0,52.81,84c-4.85-2.59-8.2-4.77-10.08-6.53a7.69,7.69,0,0,1-2.58-5.75,8,8,0,0,1,2.58-6.07c1.75-1.62,4.66-2.46,8.6-2.46a39.53,39.53,0,0,1,15.76,3.23c.39.2.85.39,1.29.58L72,68.65C76,70.4,79.5,69.17,82.6,65c.46-.57.84-1.21,1.29-1.86l3-6.72c1.94-5.76,1-9.83-2.7-12h-.07c-.33-.2-.59-.34-.91-.52h-.06c-3.1-1.55-7-3.11-7-3.11A85.47,85.47,0,0,0,65,37.24a72,72,0,0,0-18-2.06,56.24,56.24,0,0,0-14.4,1.67,39.45,39.45,0,0,0-8.86,3.37A33.64,33.64,0,0,0,9.59,53.85a38.82,38.82,0,0,0-4.72,19A37,37,0,0,0,9.52,91.72,41.77,41.77,0,0,0,21.41,105a93.58,93.58,0,0,0,16.67,9.63,60.78,60.78,0,0,1,12.73,7.18,9.59,9.59,0,0,1,4.07,7.81,9,9,0,0,1-2.39,5.5c-1.48,1.87-5.1,2.83-10.6,2.83a41.8,41.8,0,0,1-16-3.16l-2.32-1.1-7.11-3.17c-3.68-1.68-7-.83-10,2.52a19.16,19.16,0,0,0-2.26,3.17l-3.17,7c-1.23,3.68-1.29,6.72-.32,9l.06.06c1.24,3,5.11,4.59,5.11,4.59l.58.26c3.43,1.68,6.78,3.1,10.08,4.33,2.65,1,5.36,1.81,8,2.51a103.38,103.38,0,0,0,13.83,2.86c3.42.31,6.39.44,8.78.44a61.71,61.71,0,0,0,14.09-1.55,50.73,50.73,0,0,0,8.91-3.1,36.86,36.86,0,0,0,15.71-13.69c3.75-5.95,5.63-13.06,5.63-21.14C91.4,120.47,89.84,114.27,86.74,109.36Z"/><path class="cls-2" d="M196.33,157.82,187.67,44.68V44a8.28,8.28,0,0,0-8.28-7.24H164a8.24,8.24,0,0,0-8.27,8.09V46l2.19,37.35v1a6.07,6.07,0,0,1-6,5.89H139.07A6.07,6.07,0,0,1,133,84.22V84a1.54,1.54,0,0,1,.06-.52l1.74-36.83.13-2a8.3,8.3,0,0,0-8.27-7.89l-15.51-.07A8.23,8.23,0,0,0,103,43.9l-.06.78L93.13,158.13v.07a3.42,3.42,0,0,0-.06.78,8.27,8.27,0,0,0,8,8.27h17.64a8.29,8.29,0,0,0,8-7c0-.44.06-.83.06-1.29v-.13l3-29.33.07-1.11a6,6,0,0,1,6-5.1h18.49a6.07,6.07,0,0,1,6,5.31l.07.9,1.48,29.85.07.51a8.16,8.16,0,0,0,7.94,7.37h18.49a8.26,8.26,0,0,0,8-8.2V159C196.39,158.6,196.33,158.2,196.33,157.82Z"/><path class="cls-2" d="M310.37,157.36a10.46,10.46,0,0,0-.38-1.16L279.09,46.81h0a9.53,9.53,0,0,1,.32,1.09,14.16,14.16,0,0,0-13.89-11.18H245.24a14.22,14.22,0,0,0-13.57,10v.13L201.24,156.4l-.2.71a6.08,6.08,0,0,0-.26,1.87,8.25,8.25,0,0,0,8.08,8.27h15.9a8.29,8.29,0,0,0,7.62-5.62l.2-.84L236.65,146c.13-.26.13-.52.26-.78a6.05,6.05,0,0,1,5.75-4.06h26.75a6,6,0,0,1,5.74,4.12,1.94,1.94,0,0,0,.13.46l4.4,15.56a.25.25,0,0,0,.06.2,8.19,8.19,0,0,0,7.63,5.75h14.87a8.25,8.25,0,0,0,8.27-8.27A12.65,12.65,0,0,0,310.37,157.36Zm-50.21-41.74H251.7a5,5,0,0,1-5-5,5.79,5.79,0,0,1,.19-1.43v-.06l7.5-27c.06-.13.06-.26.13-.39a1.41,1.41,0,0,1,2.65.19.26.26,0,0,1,.06.13l7.62,27c.07.19.13.39.2.57a6.41,6.41,0,0,1,.13,1A5.05,5.05,0,0,1,260.16,115.62Zm19.45-66a8,8,0,0,1,.07,1.29A8,8,0,0,0,279.61,49.65Zm-.18-1.29a4.67,4.67,0,0,1,.12.9A4.67,4.67,0,0,0,279.43,48.36Z"/><path class="cls-2" d="M473.74,114.25l0,0A46,46,0,0,1,489.3,90,45.85,45.85,0,0,0,473.74,114.25Z"/><path class="cls-2" d="M392,139.78s.39.13,1.05.32Z"/><path class="cls-2" d="M512.07,77.64a48.2,48.2,0,0,0,7.47-6.12c.2-.2.36-.45.56-.66-.24.25-.45.52-.69.76A48.8,48.8,0,0,1,512.07,77.64Z"/><path class="cls-2" d="M524.94,64.77c-.5.76-1,1.5-1.57,2.22C523.92,66.27,524.44,65.53,524.94,64.77Z"/><path class="cls-2" d="M538.27,84.28a75,75,0,0,0-5.69-16.06,64,64,0,0,1-2.68,12.9,66.74,66.74,0,0,1-22.15,32.18,61.83,61.83,0,0,1-5.44,3.82c22.27,6.4,14.25,18.27,14.25,18.27-8-4.35-13.47,3.1-20.34,7.18s-11.13,4.28-43,5.38c-30.1,1-35.43,17.59-36,19.49a78.5,78.5,0,0,0,44.24,13.64,82.1,82.1,0,0,0,17-1.81c2-.45,4-1,5.95-1.54a78.35,78.35,0,0,0,18.87-8.61c2.32-1.48,4.58-3,6.72-4.71.9-.64,1.75-1.42,2.65-2.13a80.82,80.82,0,0,0,14.27-16,78.92,78.92,0,0,0,11.31-62Z"/><path class="cls-2" d="M425.06,92.9c4.47,1.42,10.49,3.24,16.57,4.86,1.29.31,2.59.7,3.82,1a10.43,10.43,0,0,0,1.37.45c9.64,3.11,17.93,7.52,21.55,10.5a54.78,54.78,0,0,1,5.37,4.51A45.85,45.85,0,0,1,489.3,90c1.09-.89,2.24-1.74,3.43-2.53a44,44,0,0,1,8.93-4.67c.59-.25,1.23-.45,1.81-.71a44,44,0,0,0,8.6-4.44,48.8,48.8,0,0,0,7.34-6c.24-.24.45-.51.69-.76A43.41,43.41,0,0,0,523.37,67c.55-.72,1.07-1.46,1.57-2.22a42.46,42.46,0,0,0,2.37-4c.18-.35.39-.68.55-1a78.63,78.63,0,0,0-51.29-34.83,81.57,81.57,0,0,0-15.06-1.42,78,78,0,0,0-18.67,2.25,78.9,78.9,0,0,0-42.06,26.31c-1.95,2.45-3.83,5-5.56,7.55-.91,1.42-1.69,2.84-2.52,4.33a46.13,46.13,0,0,0,10.2,16.22A47.56,47.56,0,0,0,414,88.62c1.35.74,2.72,1.41,4.13,2A53.07,53.07,0,0,0,425.06,92.9Z"/><path class="cls-2" d="M438.2,126.13s-34.36-10-46.35-44.16l-.4-1.11c-.37-1.14-.74-2.29-1.06-3.48-.55-1.94-1-3.91-1.4-5.93a78.94,78.94,0,0,0-6.31,30.86,77.26,77.26,0,0,0,4.92,27.21,76.17,76.17,0,0,0,4.51,10.2s.28.1.77.24A52.76,52.76,0,0,0,438.2,126.13Z"/><path class="cls-3" d="M402.77,80.08A48.27,48.27,0,0,0,414,88.62c1.35.74,2.72,1.41,4.13,2a53.07,53.07,0,0,0,6.94,2.26c4.47,1.42,10.49,3.24,16.57,4.86,1.29.31,2.59.7,3.82,1a10.43,10.43,0,0,0,1.37.45c9.64,3.11,17.93,7.52,21.55,10.5a54.78,54.78,0,0,1,5.37,4.51l0,0A46,46,0,0,1,489.3,90c1.09-.89,2.24-1.74,3.43-2.53a44,44,0,0,1,8.93-4.67c.59-.25,1.23-.45,1.81-.71a44,44,0,0,0,8.6-4.44,48.2,48.2,0,0,0,7.47-6.12c.2-.2.36-.45.56-.66A48.77,48.77,0,0,0,523.37,67c.55-.72,1.07-1.46,1.57-2.22a43.77,43.77,0,0,0,2.37-4c.16-.32.37-.62.55-.93A78.75,78.75,0,0,0,392.64,64,46.16,46.16,0,0,0,402.77,80.08Z"/><path class="cls-3" d="M392.88,140a52.76,52.76,0,0,0,45.32-13.83s-34.36-10-46.35-44.16l-.4-1.11c-.37-1.14-.74-2.29-1.06-3.48-.55-1.94-1-3.91-1.4-5.93a0,0,0,0,1,0,0,78.8,78.8,0,0,0,3.21,68.4Z"/><path class="cls-3" d="M532.57,68.33a64.56,64.56,0,0,1-2.67,12.79,66.74,66.74,0,0,1-22.15,32.18,61.83,61.83,0,0,1-5.44,3.82c22.27,6.4,14.25,18.27,14.25,18.27-8-4.35-13.47,3.1-20.34,7.18s-11.13,4.28-43,5.38c-30.1,1-35.43,17.59-36,19.49,0,0,0,0,0,0A78.72,78.72,0,0,0,532.57,68.33Z"/><g class="cls-4"><path class="cls-5" d="M402.77,80.08A48.27,48.27,0,0,0,414,88.62c1.35.74,2.72,1.41,4.13,2a53.07,53.07,0,0,0,6.94,2.26c4.47,1.42,10.49,3.24,16.57,4.86,1.29.31,2.59.7,3.82,1a10.43,10.43,0,0,0,1.37.45c9.64,3.11,17.93,7.52,21.55,10.5a54.78,54.78,0,0,1,5.37,4.51l0,0A46,46,0,0,1,489.3,90c1.09-.89,2.24-1.74,3.43-2.53a44,44,0,0,1,8.93-4.67c.59-.25,1.23-.45,1.81-.71a44,44,0,0,0,8.6-4.44,48.2,48.2,0,0,0,7.47-6.12c.2-.2.36-.45.56-.66A48.77,48.77,0,0,0,523.37,67c.55-.72,1.07-1.46,1.57-2.22a43.77,43.77,0,0,0,2.37-4c.16-.32.37-.62.55-.93A78.75,78.75,0,0,0,392.64,64,46.16,46.16,0,0,0,402.77,80.08Z"/><path class="cls-5" d="M392.2,139.84l.87.26-.87-.26Z"/><path class="cls-5" d="M392.88,140a52.76,52.76,0,0,0,45.32-13.83s-34.36-10-46.35-44.16l-.4-1.11c-.37-1.14-.74-2.29-1.06-3.48-.55-1.94-1-3.91-1.4-5.93a0,0,0,0,1,0,0,78.8,78.8,0,0,0,3.21,68.4Z"/><path class="cls-5" d="M532.57,68.33a64.56,64.56,0,0,1-2.67,12.79,66.74,66.74,0,0,1-22.15,32.18,61.83,61.83,0,0,1-5.44,3.82c22.27,6.4,14.25,18.27,14.25,18.27-8-4.35-13.47,3.1-20.34,7.18s-11.13,4.28-43,5.38c-30.1,1-35.43,17.59-36,19.49,0,0,0,0,0,0A78.72,78.72,0,0,0,532.57,68.33Z"/></g><path class="cls-6" d="M402.77,80.08A48.27,48.27,0,0,0,414,88.62c1.35.74,2.72,1.41,4.13,2a53.07,53.07,0,0,0,6.94,2.26c4.47,1.42,10.49,3.24,16.57,4.86,1.29.31,2.59.7,3.82,1a10.43,10.43,0,0,0,1.37.45c9.64,3.11,17.93,7.52,21.55,10.5a54.78,54.78,0,0,1,5.37,4.51l0,0A46,46,0,0,1,489.3,90c1.09-.89,2.24-1.74,3.43-2.53a44,44,0,0,1,8.93-4.67c.59-.25,1.23-.45,1.81-.71a44,44,0,0,0,8.6-4.44,48.2,48.2,0,0,0,7.47-6.12c.2-.2.36-.45.56-.66A48.77,48.77,0,0,0,523.37,67c.55-.72,1.07-1.46,1.57-2.22s.93-1.55,1.38-2.33A75.47,75.47,0,0,0,394,67.21,46.36,46.36,0,0,0,402.77,80.08Z"/><path class="cls-6" d="M531.8,73.24a62.41,62.41,0,0,1-1.9,7.88,66.74,66.74,0,0,1-22.15,32.18,61.83,61.83,0,0,1-5.44,3.82c22.27,6.4,14.25,18.27,14.25,18.27-8-4.35-13.47,3.1-20.34,7.18s-11.13,4.28-43,5.38c-24.77.85-32.76,12.2-35.1,17.26A75.1,75.1,0,0,0,461.28,179c42,.12,76.08-34.13,76.21-76.48A76.79,76.79,0,0,0,531.8,73.24Z"/><path class="cls-6" d="M438.2,126.13s-34.36-10-46.35-44.16l-.4-1.11c-.37-1.14-.74-2.29-1.06-3.48-.11-.37-.17-.77-.27-1.14a76.56,76.56,0,0,0,5.51,64.12A52.71,52.71,0,0,0,438.2,126.13Z"/><text class="cls-7" transform="translate(7.33 23.71)">C<tspan class="cls-8" x="18.32" y="0">O</tspan><tspan class="cls-9" x="40.22" y="0">MU</tspan><tspan class="cls-10" x="85.43" y="0">N</tspan><tspan class="cls-11" x="106.39" y="0">I</tspan><tspan class="cls-12" x="113.94" y="0">D</tspan><tspan class="cls-13" x="134.85" y="0">A</tspan><tspan class="cls-14" x="153.98" y="0">D</tspan><tspan class="cls-15" x="175.51" y="0">E </tspan><tspan class="cls-16" x="200.23" y="0">C</tspan><tspan class="cls-17" x="219.52" y="0">A</tspan><tspan class="cls-18" x="236.76" y="0">T</tspan><tspan class="cls-14" x="251.36" y="0">Ó</tspan><tspan class="cls-19" x="273.26" y="0">L</tspan><tspan class="cls-20" x="288.56" y="0">I</tspan><tspan class="cls-21" x="296.34" y="0">C</tspan><tspan class="cls-22" x="315.63" y="0">A</tspan></text></g></g></g></svg>