<svg xmlns="http://www.w3.org/2000/svg" viewBox="0 0 2442.86 1043.52"><defs><style>.cls-1{fill:#fff;}</style></defs><g id="Camada_2" data-name="Camada 2"><g id="Camada_1-2" data-name="Camada 1"><path class="cls-1" d="M2037.17,1039.59c-14.62-3.86-29.52-6.7-44-11-10-3-19.41-7.6-29-11.7-20-8.57-38.07-20.44-55.17-33.73a350.25,350.25,0,0,1-49.59-47c-.28-.32-.23-.91-.71-3,2.4,1,4.12,1.4,5.37,2.39,8.89,7,17.39,14.52,26.56,21.13a298.17,298.17,0,0,0,69,37.37,264.06,264.06,0,0,0,62.7,15.72c29.86,3.52,59.9,3.76,89.59-2.1,16.94-3.34,34-6.71,50.45-11.78,13.24-4.07,25.84-10.38,38.47-16.25,22.65-10.52,42.67-25.08,61.38-41.47,19.39-17,35.89-36.51,50.64-57.58,2.57-3.68,5.4-7.19,8.29-10.62,9.18-10.91,19.61-6.91,27.08.82,8.64,8.93,9.15,18.44,2.45,28.93-22.65,35.49-50.63,66.09-85.15,90.21-14.09,9.85-29.5,17.89-44.63,26.17-16.1,8.81-33.38,14.68-51.25,18.84-5.49,1.28-10.91,2.88-16.41,4.13C2095.19,1048.31,2040.07,1040.36,2037.17,1039.59Z"/><path class="cls-1" d="M0,640.65c4.38-4.52,9.15-4.32,15-2.67,9.26,2.59,18.89,3.82,28.34,5.71,10.75,2.15,21.49,4.4,32.23,6.59,12.38,2.52,24.78,5,37.15,7.55,11.07,2.3,22.1,4.75,33.16,7.07q11.7,2.46,23.45,4.77c19.75,3.86,39.53,7.56,59.25,11.53,16.3,3.28,32.52,6.91,48.8,10.27,12.35,2.55,24.75,4.91,37.12,7.42,2,.41,4,1.17,6,1.77l.08,1.55c-2.07.44-4.18,1.39-6.2,1.21-9.92-.9-19.82-2.17-29.74-3.19-36.76-3.77-73.54-7.43-110.3-11.26-22.69-2.37-45.34-5.05-68-7.43C70.89,677.84,35.44,674.28,0,670.65Z"/><path class="cls-1" d="M1519.09,718.64q0,58.49,0,117c0,9.3-.59,9.91-9.86,9.92q-28.74,0-57.48,0c-6.89,0-9.26-2.34-9.42-9.31-.06-2.49.49-5,.29-7.47-.14-1.64-1.11-3.2-1.71-4.8-1.64.83-3.53,1.38-4.88,2.55-5.63,4.85-10.78,10.32-16.71,14.75-10.6,7.89-23.38,10.07-36,12-18.12,2.84-36.19.85-53.43-4.31-32.82-9.82-57.78-30-73.45-60.93a159,159,0,0,1-16.76-83.65c2-29.84,12.83-56.41,33.12-78.95,10.92-12.12,22.91-22.88,37.22-30.6,20.84-11.25,43.11-16.38,66.93-13,13.22,1.89,26.41,4.27,38.12,11,6.54,3.73,12.29,8.87,18.31,13.48,1.29,1,2,2.73,3.38,3.63s3,1.57,4.35,1.26c.8-.19,1.53-2.4,1.58-3.73.1-3-.42-6-.37-9,.1-5.74,3.39-8.92,9.07-8.92q29,0,58,0c8.32,0,9.76,1.51,9.77,10Q1519.11,659.17,1519.09,718.64Zm-202.85-1.36c-1.64,34.54,27.91,64.46,61.64,65,35.18.55,63.94-27.9,64.51-63.21.6-37-29.41-65.22-62.91-66C1346.69,652.22,1315.94,681,1316.24,717.28Z"/><path class="cls-1" d="M2191.93,740.86h-84a37.29,37.29,0,0,0-4.49.16c-5.14.62-7.13,4-5.31,8.84a60.2,60.2,0,0,0,65,38.82c11.74-1.62,22.54-6.26,30.83-15.09,5.84-6.23,12.67-8.46,21-8.31,18.83.32,37.67.2,56.5.29,5.76,0,7.61,2.65,4.85,8.07-13,25.51-30.18,47.39-55.32,62.1a127.17,127.17,0,0,1-68.07,18,133.3,133.3,0,0,1-50.76-11.26c-20.93-9.11-38.68-22.08-52.63-40a137,137,0,0,1-17.43-30c-8.35-19.24-11.64-39.2-11-59.82a133.81,133.81,0,0,1,10.46-47.44c11.95-28.6,31.22-50.74,57.83-65.9s55-21.88,85.93-16.57c38.24,6.58,67.92,26.07,89.87,57.52,7.49,10.74,12.78,22.74,16.79,35.42a155.37,155.37,0,0,1,6.86,51.69c-.33,11.55-2.65,13.61-14,13.59q-41.51-.07-83,0Zm-37.34-51.39v-.12q23.49,0,47,0a37.57,37.57,0,0,0,5-.2c3.53-.48,5.17-2.54,3.83-6-5.19-13.15-13.66-23.63-26.42-30s-26.63-8-40.85-5.71c-21.52,3.46-35.47,16.22-44,35.69-1.48,3.4-.11,5.52,3.5,6a44.19,44.19,0,0,0,6,.28Q2131.6,689.49,2154.59,689.47Z"/><path class="cls-1" d="M868.06,740.87c-27.49,0-55,.34-82.48-.14-14.46-.25-13.16,6.32-8.93,15.15,13.89,29,48.2,40.1,76.46,29.17,6.88-2.66,12.95-8,18.68-12.92,4.67-4,9.3-6.59,15.58-6.54,19.83.15,39.65,0,59.48.14,2.42,0,4.83,1.4,7.24,2.16-.78,2.36-1.12,5-2.4,7.05-6.12,9.87-11.82,20.12-18.94,29.24A125.77,125.77,0,0,1,884.63,842c-20,9.06-40.78,13.66-62.53,11.66-41.07-3.76-75-21.8-99.29-55.23C699,765.68,691.7,728.78,700.25,689c6.91-32.13,23.06-58.64,49-78.85,25.54-19.9,54.62-30.57,87.08-29.12a130.61,130.61,0,0,1,69.89,23.86,134,134,0,0,1,42.64,48c11.87,22.55,16.58,46.88,15.38,72.35,0,1.16-.11,2.33-.16,3.49-.51,11.39-1.33,12.16-12.54,12.15H868.06Zm-38-51.48v0q24.21,0,48.43,0c7.42,0,9.61-2.95,6.51-9.59C879.5,668,871.21,658.45,859.34,653c-22.7-10.39-44.82-9.24-65.71,5.26-8,5.58-13.25,13.5-17.6,21.93-3.29,6.37-1.07,9.22,6.1,9.2C798.11,689.36,814.09,689.39,830.07,689.39Z"/><path class="cls-1" d="M984,718.36q0-58.23,0-116.46c0-9.83,3.06-12.66,12.89-12.54,16.49.22,33,.22,49.48.3,7.29,0,9.5,2.25,9.27,9.59-.09,2.66-.73,5.33-.55,8,.11,1.61,1.31,3.14,2,4.71,1.52-.76,3.59-1.12,4.45-2.35a57.83,57.83,0,0,1,19.84-17.92c5.37-2.89,11-5.92,16.92-7,21.83-4.19,43.72-5.22,65,3.11a86,86,0,0,1,44,37.33c10,16.92,12.2,35.57,12.48,54.35.71,49,.49,98,.64,146.94,0,4.16,0,8.33,0,12.49s-2,6.66-6.31,6.67q-31.74.06-63.48,0a6.2,6.2,0,0,1-6.5-5.15,35.93,35.93,0,0,1-.79-7.89c0-41.14,0-82.28,0-123.42,0-12.51-.55-25-5.49-36.78-3-7-7.67-12.45-15-15.17-13.93-5.22-28-5-41.32,1.37-14,6.72-19.17,19.73-20.39,34.35-.69,8.28-.45,16.65-.48,25-.11,39.65-.12,79.3-.27,119,0,8-1.07,8.85-9.05,8.85h-57c-8.58,0-10.15-1.43-10.17-10.23q-.09-58.49,0-117Z"/><path class="cls-1" d="M1976.94,689.11c-8.83,0-17.7-.53-26.48.15-8.26.64-13.37-2.83-17.85-9.28-14.28-20.6-34.18-30.15-59-26.38-19.64,3-34.24,13.94-43.44,32.21-9.37,18.6-10.19,37.45-3.11,56.53,6,16.17,16.73,28.27,33.17,35.22,12.77,5.39,25.83,5.81,38.67,2.8,14-3.27,25.36-11.74,33.44-23.72,4-5.93,8.79-8.41,15.77-8.31,20,.26,40,.19,60,.29,6.14,0,7.71,2.3,5.73,8.26-11.14,33.58-30.73,60.8-61.71,78.52-30,17.15-62.23,22.14-96.38,15.67-23.36-4.43-44.6-13.08-62.85-28.43-13.68-11.51-24-25.59-31.71-41.78-10.42-21.84-16.42-44.72-15.65-68.86a134.29,134.29,0,0,1,19.55-66.23,131.48,131.48,0,0,1,56.32-51.36c22.35-10.79,46.22-14.37,71-12.36A141.29,141.29,0,0,1,1940,594.12a132.59,132.59,0,0,1,51.3,41.08c10.14,13.45,16.76,28.58,22,44.41,2.33,7,.38,9.62-6.94,9.58-9.83-.05-19.66,0-29.49,0Z"/><path class="cls-1" d="M1574,769c9.34,0,18.68.26,28-.1,5.47-.22,8.72,2.07,11.12,6.65,7.91,15.07,23,20.81,39.07,15,8.54-3.09,14.78-12.21,13.93-20.78-.79-7.92-6.48-12.44-12.78-15.49-11.21-5.41-22.89-9.84-34.3-14.86-17-7.48-34.47-14.12-50.76-22.93-23.5-12.71-35-42.39-28-68.22,7.11-26.52,23.48-44,47.45-55.57,31.45-15.16,63.65-14.27,95.62-2.85,19.1,6.83,33.66,20.17,42.42,38.79a135.85,135.85,0,0,1,8.3,23.91c1.88,7.3-.3,9.57-7.73,9.61-19.84.1-39.67.18-59.5-.09-2.17,0-4.81-1.94-6.35-3.74-2.23-2.6-3.3-6.2-5.49-8.85-6.89-8.35-28.13-8.42-35.4.43-7.62,9.26-5,20.57,5.67,25.06,17.14,7.18,34.81,13.08,52.26,19.48,18.32,6.72,37,13.06,49.66,29.12,15.57,19.68,20.51,41.55,13.22,66-6.75,22.66-21.11,39.32-41.18,50.46-21.57,12-45.52,15.51-70,14.06-19.4-1.15-37.7-6.38-54-17.37s-28.64-24.75-34.3-43.87a141.54,141.54,0,0,1-4.1-15.83c-1-5.6,1.46-8,7.2-8.07,10-.06,20,0,30,0Z"/><path class="cls-1" d="M1242.35,490.64c-5.23-4.27-10.61-8.36-15.66-12.84-21.46-19.05-44-36.72-68.9-51-16.7-9.57-33.84-18.41-51.09-27-20.28-10.06-41.73-17-63.39-23.64a458.1,458.1,0,0,0-76.06-16.32,439.59,439.59,0,0,0-95.74-2,553.69,553.69,0,0,0-81.11,14c-21.54,5.28-42.76,11.59-63,20.33-20.56,8.86-40.73,18.81-60.32,29.64-41.76,23.11-77.68,53.7-109.55,89.07a480.13,480.13,0,0,0-52.85,70.63c-7.53,12.31-15,24.73-21.53,37.56-5.94,11.63-10.93,23.77-15.81,35.9-4.46,11.08-8.27,22.42-12.21,33.71a146.87,146.87,0,0,0-4.42,14.79c-7.87,33.23-14.52,66.66-15.43,101-.22,8.6-2.42,16.72-8.53,22.86C414.08,840.06,395.8,839.05,385,825c-5.15-6.68-6.56-14.31-5.41-22.2,3.44-23.55,6.42-47.22,11.37-70.47,3.93-18.45,10.1-36.48,16-54.45,4.45-13.55,9.63-26.9,15.29-40,4.86-11.27,10.55-22.21,16.41-33,6.57-12.11,13.13-24.3,20.78-35.73,10-14.9,20.45-29.58,31.84-43.44,12.56-15.29,26-29.94,39.79-44.12,16.62-17.07,34.49-32.9,54.18-46.39,19.19-13.15,38.7-25.89,58.58-38,10.3-6.26,21.54-11.11,32.67-15.84,17.55-7.46,35.19-14.78,53.14-21.19,12.17-4.34,24.9-7.19,37.45-10.4,7.57-1.93,15.3-3.24,22.94-4.88a441.87,441.87,0,0,1,140.21-7,598.72,598.72,0,0,1,77.69,13.4c23.5,5.71,46.58,13.76,69.11,22.66,28.63,11.31,55.56,26.22,81.31,43.28a498.21,498.21,0,0,1,81,66.34c1.67,1.7,3,3.72,4.52,5.59Z"/><path class="cls-1" d="M569.09,717.14q0-58.23,0-116.47c0-8.79,2.51-11.1,11.41-11.06,17,.08,34,0,51,0,8.54,0,10.77,2.2,10.63,10.6-.05,3-.14,6,.1,9a3.58,3.58,0,0,0,1.85,2.59c.6.22,2.07-.79,2.55-1.61a53.4,53.4,0,0,1,30.33-24.59,145,145,0,0,1,19.88-4.68c4.74-.82,9.28,3.19,9.34,8.27.25,20.66.22,41.32.3,62,0,5.14-3.49,6.87-7.66,7.65-6.23,1.15-12.66,1.47-18.7,3.21-6.3,1.82-12.71,4.14-18.23,7.59-9.84,6.14-14.42,15.92-15,27.34-.48,10-.49,20-.51,30q-.06,54.23,0,108.46c0,9.21-1,10.18-10.41,10.19H580c-8.76,0-10.88-2.06-10.88-10.94Q569.05,775.87,569.09,717.14Z"/><path class="cls-1" d="M2308,718.43q0-58.23,0-116.46a38.34,38.34,0,0,1,.3-6c.66-4.15,2.87-6.42,7.44-6.39,18.65.09,37.32,0,56,0,5.26,0,8,2.75,8.05,8,.05,2.49-.53,5-.28,7.47.18,1.79,1.27,3.49,2,5.22,1.73-1,4.15-1.53,5.07-3a50,50,0,0,1,16.16-16.05c10.45-6.55,22.23-8.67,34.22-9.71,4-.34,6,2.37,6,6.38q0,32.49,0,65c0,3.28-1.73,4.94-4.59,5.61-4.86,1.14-9.84,1.81-14.61,3.23-8.21,2.45-16.82,4.31-24.27,8.28-7.87,4.19-12.41,11.94-13.25,21.19-.75,8.11-1.73,16.25-1.76,24.38-.14,39.82,0,79.63,0,119.45l0,10.52c-4.85,0-6.12.75-10.92-6.31-6.35-16.1-30.93-17.48-38.9-2.6-4.79,8.94-12.5,11.4-22.33,8.52-1.81-.53-3.8-3.71-4-5.83-.52-5.27,0-10.64,0-16q0-52.49,0-105Z"/><path class="cls-1" d="M507.94,392.87c-2.74-2.93-5.74-5.66-8.18-8.83-24.8-32.13-49.44-64.37-74.24-96.5q-31.71-41.09-63.66-82Q335.49,171.7,309,137.93c-2.91-3.72-2.66-6.59,1.07-9.39q8.78-6.58,17.8-12.82c3.94-2.72,7.42-1.91,10.16,2.44,11.16,17.7,22.19,35.5,33.34,53.21,11.6,18.42,23.32,36.75,34.9,55.16s22.86,36.66,34.37,54.94c9.56,15.18,19.28,30.26,28.9,45.41,6.95,10.94,13.8,21.94,20.77,32.86,5.62,8.83,11.39,17.57,17,26.4a45.22,45.22,0,0,1,2.54,5.46Z"/><path class="cls-1" d="M396.77,528.31c-3.6-1.57-7.33-2.89-10.78-4.75-16.8-9.06-33.5-18.32-50.31-27.38q-28.05-15.14-56.24-30c-13.35-7.06-26.83-13.85-40.17-20.94-12.33-6.54-24.49-13.4-36.8-20-18.61-9.93-37.32-19.66-55.91-29.61-10.68-5.71-21.23-11.67-31.8-17.56-3.8-2.12-4.32-4.81-1.92-8.64,4.15-6.59,7.77-13.52,11.79-20.19,2.13-3.52,4.86-3.1,8-.94q23.68,16.17,47.53,32.11C204.53,396.64,229,412.73,253.3,429c18.38,12.29,36.6,24.82,55,37.12,23.35,15.63,46.8,31.1,70.16,46.72,6.54,4.36,12.9,9,19.34,13.49C397.44,527,397.1,527.65,396.77,528.31Z"/><path class="cls-1" d="M602.7,0c4.87-.34,7.56,1.74,8.64,6.2q4,16.71,8,33.43,3.76,15.75,7.47,31.53c1.86,7.93,3.62,15.88,5.49,23.81,4.46,18.93,9,37.83,13.43,56.78,5.31,23,10.39,46,15.71,69,3.18,13.77,6.58,27.49,10,41.22,2.27,9.2,4.66,18.37,7,27.55a3.58,3.58,0,0,1,.26,1.47c-.43,1.94-1,3.87-1.47,5.8a34.1,34.1,0,0,1-3.23-5.33c-1.84-4.76-3.36-9.64-5-14.46Q663.6,261.51,658.21,246,652.6,229.74,647,213.51c-5.78-16.62-11.63-33.21-17.39-49.83-3.52-10.18-6.85-20.42-10.39-30.6-4-11.59-8.24-23.12-12.28-34.71-3.56-10.18-7-20.42-10.5-30.61-4.14-11.91-8.34-23.8-12.5-35.7-1.92-5.48-4-10.9-5.65-16.47-1.83-6.36-.07-8.73,6.29-10.35C590.66,3.69,596.66,1.79,602.7,0Z"/><path class="cls-1" d="M300.64,795.22c-5.09,10.53-13.28,15.63-24.82,14.08-6.61-.9-10.91-5.56-14.82-10.3-5-6-9.64-12.32-14.11-18.72-8.9-12.77-23.09-14.67-32.85-1.1-3.88,5.4-8,10.63-11.83,16.08-15.28,21.83-35.61,21.51-50.67-.56a171.29,171.29,0,0,0-15.35-19,13,13,0,0,0-19.48.07c-4.44,4.91-7.88,10.71-12.2,15.74-5.25,6.11-10.15,13-16.65,17.46-14.15,9.73-29.5,2.2-37.77-7.75a117.17,117.17,0,0,1-8.77-12.1A42.17,42.17,0,0,0,21.25,772.6c-6-2.5-8.79-6.68-7.48-11.31,1.27-4.47,6.91-7.81,12.43-6.95,10.57,1.65,18.06,7.95,23.93,16.49,4.7,6.85,9,14,14.13,20.51,5.89,7.48,14.16,7.77,20.69.74,5.53-6,10.33-12.57,15.39-19,6.31-7.94,13.69-14.35,24.37-14.77,12.18-.49,20,6.91,26.57,16,4.86,6.74,9.16,13.9,14.31,20.39,6.61,8.33,16.5,9.11,23.88,1.54,5.88-6,10.34-13.46,16.12-19.63,4.46-4.76,9.48-9.48,15.16-12.5,8.25-4.38,19.3-1.39,26.19,6.68,5.69,6.67,10.55,14.09,15.36,21.45,7.05,10.77,13.22,14,25.53,11.34,3.58-.78,6.62-4,9.88-6.15C298.74,796.8,299.67,796,300.64,795.22Z"/><path class="cls-1" d="M320.51,633.06c-6-.87-12-1.86-17-5.9-6.8-5.47-9-13.29-10.78-21.32-1.45-6.48-2.62-13.06-4.6-19.38-4-12.91-17.7-17.24-29.64-9.85-7.77,4.82-15.46,9.82-23.55,14-15.14,7.9-33.57.34-38.45-17-2.75-9.75-5.42-19.52-8.49-29.17-3.29-10.33-13-13.88-22.3-8.41-7.75,4.55-15.29,9.45-23.14,13.82-16.61,9.23-34.31,5.46-42.41-10.76-4.08-8.18-6.45-17.37-8.51-26.35-1.65-7.16-4.3-13.11-10.27-17.54C78,492.71,74.94,489.75,76,484.8c1.71-7.8,10.18-9.71,17.58-4.32,10,7.27,13,18.09,15.61,29.2,1.63,7,3,14,5,20.84,2.37,8.17,12.29,10.64,21.42,5.79,8.78-4.67,17.58-9.32,26.49-13.72,12.18-6,28.45.35,35.1,12.24,5.43,9.72,5.06,20.57,8.19,30.65,1.17,3.77,2.1,7.85,4.26,11,5.83,8.51,14.53,10.07,23.65,5,8.16-4.48,16.33-8.95,24.58-13.26a25.12,25.12,0,0,1,35.75,15.24,201,201,0,0,1,5.06,22.86c1.66,10.3,7.72,17.42,15.67,23.24,1.71,1.26,4.3,1.3,6.48,1.9Z"/><path class="cls-1" d="M574.75,329.73c-5,.75-8.29-2.61-11-5.93-8.73-10.63-4.39-20.12,1.42-29.82,3.42-5.69,7.64-10.92,10.78-16.75a29.58,29.58,0,0,0,3.2-11.4c.76-9.19-5.42-14.5-15.54-17.1-8.05-2.06-16.35-3.12-24.51-4.79-12.31-2.52-22.25-14.85-20.31-26.36.9-5.4,3.7-10.62,6.29-15.57,4.06-7.78,9-15.08,12.94-22.92,3.28-6.61,1-13.51-6.06-16-8.54-3-17.65-4.5-26.57-6.39-11.51-2.45-20.72-7.56-25.41-19.18-4-9.89-1.14-18.62,3.68-27.1,4.08-7.21,9-14,12.54-21.44,1.66-3.43,1.65-8,1.32-12-.42-5.15,1.47-9.77,5.87-11.37,4.62-1.68,8.16,0,11,4.88,6.14,10.27,2.6,19.6-2.83,28.58-4.47,7.38-9.5,14.43-14.2,21.67-4.95,7.6-3.38,14.66,4.67,18.78,3.77,1.93,8.15,2.64,12.23,4,8.62,2.81,17.72,4.7,25.73,8.72,12.77,6.42,13.92,21.61,8.74,32.7-3.47,7.45-8.9,14-13.37,21a52,52,0,0,0-4.36,7.76c-4.25,10.17.59,19.17,11.39,22,10.11,2.63,20.32,5.07,30.19,8.45a21.09,21.09,0,0,1,11.76,29.56,229.17,229.17,0,0,1-16.14,26.27C560.61,310.46,564.51,322.14,574.75,329.73Z"/><path class="cls-1" d="M426.36,453.11c-3.77,3.06-6.72,2.74-10,.37-10.52-7.56-13.93-17.59-11.4-30.12a200.88,200.88,0,0,0,3-20.25c1.39-14.55-6.5-22.71-21-21.31-6.57.64-13,2.89-19.5,4.11-9.45,1.76-18.88,2.86-27.21-3.82-6.28-5-10.77-11.22-10.25-19.53.58-9.27,2.17-18.47,3-27.73.35-3.88.86-8.2-.41-11.69-3-8.16-8-10.85-16.71-10.26-2.65.17-5.27.79-7.9,1.14-9,1.21-18,3.15-27.07,3.42-15.28.45-26.26-10.72-25.94-26.08.2-9.3,1.48-18.58,2.53-27.85.77-6.86,0-13.17-4.14-19-2.88-4.06-2-8.07,1.91-11.51,3.68-3.26,7.27-3.36,11.25-.32,7.83,6,10,14.46,9.43,23.55-.45,7.25-2.11,14.45-3.49,21.62-1.18,6.18-3.41,12.28.42,18.35,4,6.3,9.71,8.18,16.78,7.16,9.37-1.36,18.71-3.05,28.12-3.87,10.13-.89,18.21,3.21,23.37,12.17,1.37,2.38,2.91,5.24,2.79,7.8-.44,9.75-1.11,19.53-2.51,29.19-1.07,7.42-3.51,14.61,1.33,21.66,3,4.41,6.73,7.66,12.24,7.31,7.12-.44,14.24-1.19,21.28-2.27,7.92-1.21,15.51-2.41,23.6.36,8.59,3,16.06,14.17,14.95,23.67A206,206,0,0,1,410.59,424c-3.34,13.72.67,22.34,13.77,27.78A14.8,14.8,0,0,1,426.36,453.11Z"/><path class="cls-1" d="M744.68,270.64c-2.88-1.51-5.95-2.74-8.59-4.58-7.25-5.09-9.75-16.81-4.08-23.56,6.56-7.82,14.38-14.58,21.53-21.92a41,41,0,0,0,6.57-8.05c3.89-6.83,2.27-14.59-4.49-18.81a143.15,143.15,0,0,0-19.14-9.49c-6.82-2.95-13.15-6.32-17.76-12.4-4.94-6.52-5.87-17.94-.67-24.32s11.29-11.66,17-17.45c2.92-3,5.91-5.84,8.69-8.93,6.52-7.24,4.25-13.83-4.16-18.76-6.71-3.94-14-6.91-21.28-9.8-13.7-5.45-23.51-19.36-17.08-34.25,2.54-5.86,7.46-10.76,11.62-15.83a43.16,43.16,0,0,1,7.12-6.26c7-5.39,11.88-11.94,13-21,.53-4.38,4.07-5.89,8-6.2,4.4-.34,7.37,2,8.8,6,2.91,8,.48,15.53-4.6,21.47S733.54,46.87,727.75,52.1a136.87,136.87,0,0,0-10,9.67c-3.59,4-3.58,9.15.59,12.34,4.82,3.68,10.38,6.37,15.57,9.58,6.45,4,13.83,7.06,19.09,12.27,11.79,11.71,9.47,20.92,1.28,31.44-4.81,6.18-11.72,10.72-17.61,16.08a131.44,131.44,0,0,0-9.68,9.34c-3.67,4.11-4.07,10.51.17,14,5.93,4.88,12.81,8.63,19.38,12.71,4.77,3,10.32,5,14.44,8.68,11.56,10.3,11.81,21.83.83,32.91-5.37,5.41-11.82,9.72-17.48,14.86-4.35,3.95-9.25,7.46-10.12,14.22-1,7.83,3.72,12.25,8.62,16.79.71.67,1.56,1.19,2.33,1.79.1.09.1.31.14.47Z"/></g></g></svg>